<svg width="64" height="77" viewBox="0 0 64 77" fill="none" xmlns="http://www.w3.org/2000/svg">
<path d="M53.509 40.2466C53.475 34.0064 56.2976 29.2965 62.0106 25.8278C58.814 21.254 53.9851 18.7375 47.6089 18.2444C41.5728 17.7683 34.9756 21.7641 32.5611 21.7641C30.0106 21.7641 24.1615 18.4145 19.5707 18.4145C10.0829 18.5675 0 25.9809 0 41.0627C0 45.5175 0.816153 50.1197 2.44846 54.8693C4.62487 61.1095 12.4803 76.4123 20.6759 76.1573C24.9607 76.0553 27.9872 73.1137 33.5643 73.1137C38.9713 73.1137 41.7768 76.1573 46.5547 76.1573C54.8183 76.0383 61.9256 62.1297 64 55.8725C52.9139 50.6525 53.509 40.5696 53.509 40.2466ZM43.8852 12.3273C48.5271 6.81828 48.102 1.80234 47.966 0C43.8682 0.238045 39.1243 2.78852 36.4208 5.93411C33.4453 9.30074 31.6939 13.4665 32.068 18.1594C36.5058 18.4995 40.5526 16.221 43.8852 12.3273Z" fill="black"/>
</svg>
