<svg width="106" height="106" viewBox="0 0 106 106" fill="none" xmlns="http://www.w3.org/2000/svg">
<path d="M94.3043 61.6957L54.3043 39.5217L63.8695 35.6087V3L50.826 11.6957H33.4347L20.3912 3V35.6087L29.0869 39.087V103H94.3043L103 87.7826L94.3043 61.6957Z" fill="white"/>
<path d="M42.1304 44.3043L29.0869 39.0869V47.7826L42.1304 53L63.4347 44.3043L54.3043 39.0869L42.1304 44.3043ZM29.0869 94.3043V103H94.3043L103 87.7826H94.3043L89.9565 94.3043H29.0869Z" fill="#CCE7FF"/>
<path d="M33.4348 20.3913V24.7391M50.8261 20.3913V24.7391M29.087 103H13.8696L3 92.1304L13.8696 76.913L5.17391 68.2174L11.6957 59.5217M50.8261 11.6957H33.4348L20.3913 3V35.6087L42.1304 44.3043L63.8696 35.6087V3L50.8261 11.6957Z" stroke="#1078FF" stroke-width="4.34783" stroke-miterlimit="10" stroke-linecap="round" stroke-linejoin="round"/>
<path d="M29.0869 39.0869V103H94.3043L103 87.7826L94.3043 61.6956L54.3043 39.5217M55.1739 103V63.8695M42.1304 103V63.8695" stroke="#1078FF" stroke-width="4.34783" stroke-miterlimit="10" stroke-linecap="round" stroke-linejoin="round"/>
<path d="M81.2609 76.9131H70.3913L55.174 94.3044" stroke="#1078FF" stroke-width="4.34783" stroke-miterlimit="10" stroke-linecap="round" stroke-linejoin="round"/>
</svg>
