<svg width="64" height="64" viewBox="0 0 64 64" fill="none" xmlns="http://www.w3.org/2000/svg">
<path d="M63.3776 25.7328H60.8V25.6H32V38.4H50.0848C47.4464 45.8512 40.3568 51.2 32 51.2C21.3968 51.2 12.8 42.6032 12.8 32C12.8 21.3968 21.3968 12.8 32 12.8C36.8944 12.8 41.3472 14.6464 44.7376 17.6624L53.7888 8.6112C48.0736 3.2848 40.4288 0 32 0C14.328 0 0 14.328 0 32C0 49.672 14.328 64 32 64C49.672 64 64 49.672 64 32C64 29.8544 63.7792 27.76 63.3776 25.7328Z" fill="#FFC107"/>
<path d="M3.68994 17.1056L14.2035 24.816C17.0483 17.7728 23.9379 12.8 32.0003 12.8C36.8947 12.8 41.3475 14.6464 44.7379 17.6624L53.7891 8.6112C48.0739 3.2848 40.4291 0 32.0003 0C19.7091 0 9.04994 6.9392 3.68994 17.1056Z" fill="#FF3D00"/>
<path d="M31.9997 64C40.2653 64 47.7757 60.8368 53.4541 55.6928L43.5501 47.312C40.3373 49.7456 36.3437 51.2 31.9997 51.2C23.6765 51.2 16.6093 45.8928 13.9469 38.4865L3.51172 46.5264C8.80772 56.8896 19.5629 64 31.9997 64Z" fill="#4CAF50"/>
<path d="M63.3776 25.7328H60.8V25.6H32V38.4H50.0848C48.8176 41.9792 46.5152 45.0656 43.5456 47.3136C43.5472 47.312 43.5488 47.312 43.5504 47.3104L53.4544 55.6912C52.7536 56.328 64 48 64 32C64 29.8544 63.7792 27.76 63.3776 25.7328Z" fill="#1976D2"/>
</svg>
