<svg width="459" height="73" viewBox="0 0 459 73" fill="none" xmlns="http://www.w3.org/2000/svg">
<path d="M457.454 68.087L450.698 72.1172C449.916 72.5819 449.254 72.6763 448.685 72.5905C448.431 72.5523 437.048 68.6362 438.984 55.7893C440.138 48.1317 437.004 44.8763 432.448 44.1896L432.131 44.1419L428.669 67.1145C428.555 67.8739 427.899 68.3577 427.203 68.2527L414.546 66.3452C413.787 66.2308 413.303 65.5754 413.417 64.8159L421.219 13.0485C421.324 12.3524 421.989 11.8054 422.748 11.9198L435.406 13.8274C436.102 13.9323 436.576 14.651 436.471 15.3471L433.991 31.8013C434.76 31.8525 435.52 31.9669 436.216 32.0718C448.113 33.8649 456.538 42.3835 454.839 54.9426C454.283 59.0657 454.628 62.354 457.357 65.2895C457.689 65.6631 458.29 66.4009 458.185 67.097C458.138 67.4134 457.954 67.7741 457.454 68.087Z" fill="#1078FF"/>
<path d="M402.551 30.2243L400.971 38.3804C400.856 39.1817 400.277 39.9369 399.522 40.0738C399.27 40.1194 398.932 40.0505 398.646 39.9072C397.341 39.1678 395.012 38.8743 392.807 39.2735C391.17 39.5701 385.76 40.9403 387.003 47.8046C387.767 52.0239 391.292 54.2474 395.385 53.506C398.093 53.0155 401.025 51.2487 403.546 47.9303C403.856 47.484 404.365 47.0665 404.932 46.9638C405.373 46.884 405.922 47.0446 406.5 47.7205C408.021 49.6564 408.982 50.653 410.366 52.5487C410.624 52.8924 410.83 53.3104 410.909 53.7512C411.046 54.5069 410.857 55.2567 410.238 56.1493C406.015 61.9223 400.357 65.1584 394.69 66.1849C384.236 68.0783 373.655 62.4498 371.648 51.3661C369.093 37.2596 379.327 29.4872 389.718 27.6052C396.709 26.3392 402.249 28.1976 402.534 29.772C402.557 29.898 402.591 30.0869 402.551 30.2243Z" fill="#1078FF"/>
<path d="M355.615 55.8468L343.142 53.1779C342.401 52.976 341.918 52.3137 342.12 51.5727L349.14 18.9922C349.342 18.2512 350.066 17.7852 350.746 17.9703L358.009 19.5515C361.63 19.4103 364.975 19.7912 368.063 20.6325C370.162 21.2045 372.133 22.0067 373.929 22.9605C374.788 23.4599 375.024 24.0549 374.822 24.7958C374.755 25.0428 374.626 25.273 374.48 25.5649L370.317 33.7836C369.896 34.5976 369.161 34.8616 368.42 34.6597C368.235 34.6092 368.004 34.4802 367.774 34.3511C366.87 33.7732 365.871 33.3019 364.821 33.0159C363.957 32.7803 363.059 32.6683 362.003 32.6461L357.221 54.8248L357.187 54.9483C357.002 55.6276 356.295 56.0319 355.615 55.8468Z" fill="#1078FF"/>
<path d="M341.905 43.6509L339.394 51.9824C339.024 53.1562 338.498 53.838 337.679 53.9876C337.05 54.1027 332.459 53.9013 328.77 51.518C325.807 53.8165 322.545 55.1936 319.335 55.7808C308.821 57.7034 298.282 51.3028 296.428 41.1669C295.047 33.6121 298.406 21.7422 310.871 19.4627C314.019 18.8871 317.231 19.0155 319.882 19.6367C320.179 19.127 320.711 18.8345 321.466 18.6963L321.781 18.6388L332.845 17.5915C334.505 17.418 335.096 18.1559 335.234 18.9114L335.291 19.2261C335.458 25.1163 335.578 30.7547 336.338 34.9098C337.028 38.6871 338.216 41.2676 340.426 41.9695C341.113 42.1691 341.875 42.4202 341.99 43.0498C342.013 43.1757 341.985 43.3761 341.905 43.6509ZM322.618 42.4283C322.13 40.826 321.682 39.0862 321.325 37.1346C321.026 35.4977 320.778 33.7864 320.558 31.8747C319.572 30.7537 317.711 30.1832 315.886 30.517C311.92 31.2423 310.418 35.4856 311.005 38.6963C311.65 42.2219 314.658 44.7948 318.75 44.0465C319.946 43.8277 321.285 43.3226 322.618 42.4283Z" fill="#1078FF"/>
<path d="M274.052 53.2596L273.304 53.0845C259.159 49.7716 254.317 38.4492 256.535 28.9775C258.622 20.0666 267.105 12.1936 281.313 15.5211C296.767 19.1405 294.227 33.0724 293.745 35.1287C293.074 37.9952 291.335 40.0858 287.367 40.471C284.204 40.7821 279.433 40.3876 276.163 39.7533C275.166 39.5198 274.957 39.0106 274.883 38.2045C274.617 35.973 274.381 31.6453 274.44 31.396C274.6 30.7106 275.172 30.5158 276.026 30.5185C279.441 30.5297 279.906 30.5072 280.111 29.6348C280.242 29.074 279.525 26.8027 276.908 26.1897C273.917 25.4892 270.811 27.5226 269.906 31.386C268.87 35.8103 270.943 41.5543 278.732 43.3786C279.168 43.4808 279.667 43.5975 280.118 43.6374L280.242 43.6666C281.115 43.8709 282.043 44.6798 281.795 45.7392C281.649 46.3623 279.036 50.2202 277.605 52.1199C276.873 53.0002 275.859 53.6829 274.052 53.2596Z" fill="#1078FF"/>
<path d="M228.09 57.6241L224.208 48.594C224.121 48.4803 224.084 48.2918 224.06 48.166C223.879 47.2232 224.762 46.7281 225.139 46.6558L225.391 46.6075C229.665 45.7876 233.882 42.6326 233.122 38.6728C232.724 36.5986 231.231 34.93 226.824 30.3014C223.499 26.8989 221.693 23.5961 221.102 20.5162C219.197 10.5853 229.437 2.82093 239.997 0.79522C242.448 0.324965 243.754 0.335224 244.384 1.58281L248.368 10.4632C248.467 10.6397 248.504 10.8282 248.528 10.9539C248.721 11.9596 247.85 12.5176 247.473 12.5899L247.096 12.6623C243.01 13.446 239.466 15.6901 240.153 19.2727C240.563 21.4098 242.701 24.0624 246.376 27.5933C249.763 30.9838 251.57 34.2866 252.173 37.4293C254.175 47.863 242.848 56.4222 231.975 58.5082C231.346 58.6288 230.78 58.7373 230.14 58.795C229.323 58.9518 228.436 58.4051 228.09 57.6241Z" fill="#1078FF"/>
<path d="M184.462 31.014C181.958 43.2401 168.144 47.5312 159.241 45.7074C149.021 43.6139 141.57 34.3789 143.831 23.344C146.477 10.4282 157.506 5.69746 168.541 7.95793C182.398 10.7964 186.132 22.8633 184.462 31.014ZM163.198 34.0403C167.65 34.9522 170.401 31.7267 171.133 28.1529C171.377 26.9617 172.372 20.8286 165.977 19.5185C160.711 18.4397 158.294 22.583 157.716 25.4044C156.83 29.7306 159.625 33.3082 163.198 34.0403Z" fill="#1078FF"/>
<path d="M143.55 42.7114L139.633 50.8346C139.236 51.6089 138.789 52.0671 138.156 52.1655C137.84 52.2148 137.441 52.1473 137.022 51.9534C133.19 50.2182 124.527 46.5793 120.987 45.0576C120.568 44.8637 120.11 44.4169 120.021 43.8477C119.972 43.5315 120.049 43.1957 120.306 42.767L124.11 36.4104C121.17 38.7463 118.507 40.7801 117.341 41.6093L116.991 41.8581L119.244 52.5833C119.362 53.3421 118.954 54.0533 118.195 54.1714L105.656 56.8357C104.96 56.9439 104.249 56.5364 104.068 55.7874L93.3699 4.53496L93.3502 4.40848C93.2518 3.77609 93.7323 3.11836 94.3549 2.95669L106.904 0.355674L107.031 0.335987C107.726 0.227712 108.321 0.718114 108.492 1.40389L114.067 28.0637C116.345 25.6365 125.962 15.849 128.744 15.4159C129.25 15.3371 129.859 15.5015 130.493 16.2448L137.07 23.9651C137.382 24.3051 137.568 24.6649 137.627 25.0443C137.725 25.6767 137.434 26.3049 136.735 26.8024C135.272 27.8074 131.972 30.3288 128.503 33.0063C133.146 33.7085 143.432 39.0379 143.796 41.3778C143.855 41.7572 143.788 42.1563 143.55 42.7114Z" fill="#1078FF"/>
<path d="M76.262 55.6177L75.5071 55.4765C61.2266 52.8063 55.8782 41.7143 57.6662 32.152C59.3483 23.1559 67.4667 14.9076 81.8101 17.5896C97.4117 20.5068 95.5041 34.5393 95.1159 36.6153C94.5748 39.5091 92.9325 41.6762 88.9855 42.2404C85.8406 42.694 81.0559 42.5156 77.761 42.0297C76.7545 41.8415 76.5223 41.3423 76.4118 40.5403C76.0451 38.3232 75.6144 34.0105 75.6614 33.7589C75.7908 33.0669 76.3529 32.8465 77.206 32.8106C80.6185 32.6674 81.0824 32.6239 81.2471 31.7432C81.353 31.177 80.5341 28.9404 77.8919 28.4463C74.8722 27.8817 71.8618 30.0534 71.1325 33.9538C70.2973 38.4204 72.6275 44.0648 80.4912 45.5352C80.9316 45.6176 81.4349 45.7117 81.887 45.7311L82.0128 45.7546C82.8936 45.9193 83.8572 46.6855 83.6572 47.755C83.5396 48.3841 81.104 52.3561 79.7604 54.3186C79.0689 55.231 78.0864 55.9588 76.262 55.6177Z" fill="#1078FF"/>
<path d="M54.4227 52.8969L42.3536 53.9671C41.6571 54.0699 40.9938 53.5209 40.5298 53.0072C38.8918 51.1141 22.7519 29.4308 19.5247 26.4138C19.2154 26.0713 18.9434 25.982 18.7535 26.0101C18.4369 26.0568 18.3477 26.3288 18.4224 26.8353L18.4598 27.0885L25.6707 53.5835L25.68 53.6468C25.7829 54.3433 25.3367 55.703 23.7819 56.1266L12.1665 59.3941L11.9766 59.4221C11.0269 59.5623 10.1175 58.6615 9.93272 57.8477L0.0409999 9.68799L0.0223059 9.56137C-0.0805125 8.86491 0.138354 7.27995 1.39528 7.0297L13.6573 4.63719L13.784 4.6185C14.7337 4.47829 16.0747 4.79786 16.438 5.06769C20.7977 8.30569 30.4921 20.072 37.9298 29.2603C38.1758 29.6121 38.3844 29.7107 38.5744 29.6827C38.8276 29.6453 38.8982 29.2467 38.8234 28.7402L35.7602 2.73268C35.648 1.97292 36.2417 1.17365 37.0014 1.06148L37.128 1.04279L49.3965 0.0079097C50.4188 -0.0783307 50.9648 0.552693 51.077 1.31246C51.32 2.95861 54.9384 39.2998 55.7906 51.207C55.9121 52.0301 55.3091 52.7661 54.4227 52.8969Z" fill="#1078FF"/>
<mask id="mask0_38_27" style="mask-type:alpha" maskUnits="userSpaceOnUse" x="0" y="0" width="459" height="73">
<path d="M457.454 68.087L450.698 72.1172C449.916 72.5819 449.254 72.6763 448.685 72.5905C448.431 72.5523 437.048 68.6362 438.984 55.7893C440.138 48.1317 437.004 44.8763 432.448 44.1896L432.131 44.1419L428.669 67.1145C428.555 67.8739 427.899 68.3577 427.203 68.2527L414.546 66.3452C413.787 66.2308 413.303 65.5754 413.417 64.8159L421.219 13.0485C421.324 12.3524 421.989 11.8054 422.748 11.9198L435.406 13.8274C436.102 13.9323 436.576 14.651 436.471 15.3471L433.991 31.8013C434.76 31.8525 435.52 31.9669 436.216 32.0718C448.113 33.8649 456.538 42.3835 454.839 54.9426C454.283 59.0657 454.628 62.354 457.357 65.2895C457.689 65.6631 458.29 66.4009 458.185 67.097C458.138 67.4134 457.954 67.7741 457.454 68.087Z" fill="#1078FF"/>
<path d="M402.551 30.2243L400.971 38.3804C400.856 39.1817 400.277 39.9369 399.522 40.0738C399.27 40.1194 398.932 40.0505 398.646 39.9072C397.341 39.1678 395.012 38.8743 392.807 39.2735C391.17 39.5701 385.76 40.9403 387.003 47.8046C387.767 52.0239 391.292 54.2474 395.385 53.506C398.093 53.0155 401.025 51.2487 403.546 47.9303C403.856 47.484 404.365 47.0665 404.932 46.9638C405.373 46.884 405.922 47.0446 406.5 47.7205C408.021 49.6564 408.982 50.653 410.366 52.5487C410.624 52.8924 410.83 53.3104 410.909 53.7512C411.046 54.5069 410.857 55.2567 410.238 56.1493C406.015 61.9223 400.357 65.1584 394.69 66.1849C384.236 68.0783 373.655 62.4498 371.648 51.3661C369.093 37.2596 379.327 29.4872 389.718 27.6052C396.709 26.3392 402.249 28.1976 402.534 29.772C402.557 29.898 402.591 30.0869 402.551 30.2243Z" fill="#1078FF"/>
<path d="M355.615 55.8468L343.142 53.1779C342.401 52.976 341.918 52.3137 342.12 51.5727L349.14 18.9922C349.342 18.2512 350.066 17.7852 350.746 17.9703L358.009 19.5515C361.63 19.4103 364.975 19.7912 368.063 20.6325C370.162 21.2045 372.133 22.0067 373.929 22.9605C374.788 23.4599 375.024 24.0549 374.822 24.7958C374.755 25.0428 374.626 25.273 374.48 25.5649L370.317 33.7836C369.896 34.5976 369.161 34.8616 368.42 34.6597C368.235 34.6092 368.004 34.4802 367.774 34.3511C366.87 33.7732 365.871 33.3019 364.821 33.0159C363.957 32.7803 363.059 32.6683 362.003 32.6461L357.221 54.8248L357.187 54.9483C357.002 55.6276 356.295 56.0319 355.615 55.8468Z" fill="#1078FF"/>
<path d="M341.905 43.6509L339.394 51.9824C339.024 53.1562 338.498 53.838 337.679 53.9876C337.05 54.1027 332.459 53.9013 328.77 51.518C325.807 53.8165 322.545 55.1936 319.335 55.7808C308.821 57.7034 298.282 51.3028 296.428 41.1669C295.047 33.6121 298.406 21.7422 310.871 19.4627C314.019 18.8871 317.231 19.0155 319.882 19.6367C320.179 19.127 320.711 18.8345 321.466 18.6963L321.781 18.6388L332.845 17.5915C334.505 17.418 335.096 18.1559 335.234 18.9114L335.291 19.2261C335.458 25.1163 335.578 30.7547 336.338 34.9098C337.028 38.6871 338.216 41.2676 340.426 41.9695C341.113 42.1691 341.875 42.4202 341.99 43.0498C342.013 43.1757 341.985 43.3761 341.905 43.6509ZM322.618 42.4283C322.13 40.826 321.682 39.0862 321.325 37.1346C321.026 35.4977 320.778 33.7864 320.558 31.8747C319.572 30.7537 317.711 30.1832 315.886 30.517C311.92 31.2423 310.418 35.4856 311.005 38.6963C311.65 42.2219 314.658 44.7948 318.75 44.0465C319.946 43.8277 321.285 43.3226 322.618 42.4283Z" fill="#1078FF"/>
<path d="M274.052 53.2596L273.304 53.0845C259.159 49.7716 254.317 38.4492 256.535 28.9775C258.622 20.0666 267.105 12.1936 281.313 15.5211C296.767 19.1405 294.227 33.0724 293.745 35.1287C293.074 37.9952 291.335 40.0858 287.367 40.471C284.204 40.7821 279.433 40.3876 276.163 39.7533C275.166 39.5198 274.957 39.0106 274.883 38.2045C274.617 35.973 274.381 31.6453 274.44 31.396C274.6 30.7106 275.172 30.5158 276.026 30.5185C279.441 30.5297 279.906 30.5072 280.111 29.6348C280.242 29.074 279.525 26.8027 276.908 26.1897C273.917 25.4892 270.811 27.5226 269.906 31.386C268.87 35.8103 270.943 41.5543 278.732 43.3786C279.168 43.4808 279.667 43.5975 280.118 43.6374L280.242 43.6666C281.115 43.8709 282.043 44.6798 281.795 45.7392C281.649 46.3623 279.036 50.2202 277.605 52.1199C276.873 53.0002 275.859 53.6829 274.052 53.2596Z" fill="#1078FF"/>
<path d="M228.09 57.6241L224.208 48.594C224.121 48.4803 224.084 48.2918 224.06 48.166C223.879 47.2232 224.762 46.7281 225.139 46.6558L225.391 46.6075C229.665 45.7876 233.882 42.6326 233.122 38.6728C232.724 36.5986 231.231 34.93 226.824 30.3014C223.499 26.8989 221.693 23.5961 221.102 20.5162C219.197 10.5853 229.437 2.82093 239.997 0.79522C242.448 0.324965 243.754 0.335224 244.384 1.58281L248.368 10.4632C248.467 10.6397 248.504 10.8282 248.528 10.9539C248.721 11.9596 247.85 12.5176 247.473 12.5899L247.096 12.6623C243.01 13.446 239.466 15.6901 240.153 19.2727C240.563 21.4098 242.701 24.0624 246.376 27.5933C249.763 30.9838 251.57 34.2866 252.173 37.4293C254.175 47.863 242.848 56.4222 231.975 58.5082C231.346 58.6288 230.78 58.7373 230.14 58.795C229.323 58.9518 228.436 58.4051 228.09 57.6241Z" fill="#1078FF"/>
<path d="M184.462 31.014C181.958 43.2401 168.144 47.5312 159.241 45.7074C149.021 43.6139 141.57 34.3789 143.831 23.344C146.477 10.4282 157.506 5.69746 168.541 7.95793C182.398 10.7964 186.132 22.8633 184.462 31.014ZM163.198 34.0403C167.65 34.9522 170.401 31.7267 171.133 28.1529C171.377 26.9617 172.372 20.8286 165.977 19.5185C160.711 18.4397 158.294 22.583 157.716 25.4044C156.83 29.7306 159.625 33.3082 163.198 34.0403Z" fill="#1078FF"/>
<path d="M143.55 42.7114L139.633 50.8346C139.236 51.6089 138.789 52.0671 138.156 52.1655C137.84 52.2148 137.441 52.1473 137.022 51.9534C133.19 50.2182 124.527 46.5793 120.987 45.0576C120.568 44.8637 120.11 44.4169 120.021 43.8477C119.972 43.5315 120.049 43.1957 120.306 42.767L124.11 36.4104C121.17 38.7463 118.507 40.7801 117.341 41.6093L116.991 41.8581L119.244 52.5833C119.362 53.3421 118.954 54.0533 118.195 54.1714L105.656 56.8357C104.96 56.9439 104.249 56.5364 104.068 55.7874L93.3699 4.53496L93.3502 4.40848C93.2518 3.77609 93.7323 3.11836 94.3549 2.95669L106.904 0.355674L107.031 0.335987C107.726 0.227712 108.321 0.718114 108.492 1.40389L114.067 28.0637C116.345 25.6365 125.962 15.849 128.744 15.4159C129.25 15.3371 129.859 15.5015 130.493 16.2448L137.07 23.9651C137.382 24.3051 137.568 24.6649 137.627 25.0443C137.725 25.6767 137.434 26.3049 136.735 26.8024C135.272 27.8074 131.972 30.3288 128.503 33.0063C133.146 33.7085 143.432 39.0379 143.796 41.3778C143.855 41.7572 143.788 42.1563 143.55 42.7114Z" fill="#1078FF"/>
<path d="M76.262 55.6177L75.5071 55.4765C61.2266 52.8063 55.8782 41.7143 57.6662 32.152C59.3483 23.1559 67.4667 14.9076 81.8101 17.5896C97.4117 20.5068 95.5041 34.5393 95.1159 36.6153C94.5748 39.5091 92.9325 41.6762 88.9855 42.2404C85.8406 42.694 81.0559 42.5156 77.761 42.0297C76.7545 41.8415 76.5223 41.3423 76.4118 40.5403C76.0451 38.3232 75.6144 34.0105 75.6614 33.7589C75.7908 33.0669 76.3529 32.8465 77.206 32.8106C80.6185 32.6674 81.0824 32.6239 81.2471 31.7432C81.353 31.177 80.5341 28.9404 77.8919 28.4463C74.8722 27.8817 71.8618 30.0534 71.1325 33.9538C70.2973 38.4204 72.6275 44.0648 80.4912 45.5352C80.9316 45.6176 81.4349 45.7117 81.887 45.7311L82.0128 45.7546C82.8936 45.9193 83.8572 46.6855 83.6572 47.755C83.5396 48.3841 81.104 52.3561 79.7604 54.3186C79.0689 55.231 78.0864 55.9588 76.262 55.6177Z" fill="#1078FF"/>
<path d="M54.4227 52.8969L42.3536 53.9671C41.6571 54.0699 40.9938 53.5209 40.5298 53.0072C38.8918 51.1141 22.7519 29.4308 19.5247 26.4138C19.2154 26.0713 18.9434 25.982 18.7535 26.0101C18.4369 26.0568 18.3477 26.3288 18.4224 26.8353L18.4598 27.0885L25.6707 53.5835L25.68 53.6468C25.7829 54.3433 25.3367 55.703 23.7819 56.1266L12.1665 59.3941L11.9766 59.4221C11.0269 59.5623 10.1175 58.6615 9.93272 57.8477L0.0409999 9.68799L0.0223059 9.56137C-0.0805125 8.86491 0.138354 7.27995 1.39528 7.0297L13.6573 4.63719L13.784 4.6185C14.7337 4.47829 16.0747 4.79786 16.438 5.06769C20.7977 8.30569 30.4921 20.072 37.9298 29.2603C38.1758 29.6121 38.3844 29.7107 38.5744 29.6827C38.8276 29.6453 38.8982 29.2467 38.8234 28.7402L35.7602 2.73268C35.648 1.97292 36.2417 1.17365 37.0014 1.06148L37.128 1.04279L49.3965 0.0079097C50.4188 -0.0783307 50.9648 0.552693 51.077 1.31246C51.32 2.95861 54.9384 39.2998 55.7906 51.207C55.9121 52.0301 55.3091 52.7661 54.4227 52.8969Z" fill="#1078FF"/>
</mask>
<g mask="url(#mask0_38_27)">
<path d="M44.5549 32.2195L-13.9451 54.7195L-20.4451 83.2195L473.055 95.2195V65.2195L449.555 45.2195L403.055 54.7195L357.055 35.7195L302.055 41.7195L236.555 26.2195L186.055 32.2195L128.555 26.2195L88.5549 35.7195L44.5549 32.2195Z" fill="#CCE7FF" fill-opacity="0.25"/>
<path d="M41.0549 27.7195L-17.4451 50.2195L-23.9451 78.7195L469.555 90.7195V60.7195L446.055 40.7195L399.555 50.2195L353.555 31.2195L298.555 37.2195L233.055 21.7195L182.555 27.7195L125.055 21.7195L85.0549 31.2195L41.0549 27.7195Z" fill="#CCE7FF" fill-opacity="0.25"/>
<path d="M37.5549 23.2195L-20.9451 45.7195L-27.4451 74.2195L466.055 86.2195V56.2195L442.555 36.2195L396.055 45.7195L350.055 26.7195L295.055 32.7195L229.555 17.2195L179.055 23.2195L121.555 17.2195L81.5549 26.7195L37.5549 23.2195Z" fill="#CCE7FF" fill-opacity="0.25"/>
</g>
</svg>
