<svg width="70" height="70" viewBox="0 0 70 70" fill="none" xmlns="http://www.w3.org/2000/svg">
<circle cx="35" cy="35" r="33.5" fill="#CCE7FF" stroke="#1078FF" stroke-width="3" stroke-dasharray="6 6"/>
<path d="M43.1 37.0938C40.3453 37.0938 39.0208 38.625 34.5 38.625C29.9792 38.625 28.6643 37.0938 25.9 37.0938C18.7781 37.0938 13 42.8551 13 49.9562V52.4062C13 54.9424 15.0636 57 17.6071 57H51.3929C53.9364 57 56 54.9424 56 52.4062V49.9562C56 42.8551 50.2219 37.0938 43.1 37.0938ZM51.3929 52.4062H17.6071V49.9562C17.6071 45.4008 21.3312 41.6875 25.9 41.6875C27.3013 41.6875 29.5761 43.2188 34.5 43.2188C39.4623 43.2188 41.6891 41.6875 43.1 41.6875C47.6688 41.6875 51.3929 45.4008 51.3929 49.9562V52.4062ZM34.5 35.5625C42.1306 35.5625 48.3214 29.3896 48.3214 21.7812C48.3214 14.1729 42.1306 8 34.5 8C26.8694 8 20.6786 14.1729 20.6786 21.7812C20.6786 29.3896 26.8694 35.5625 34.5 35.5625ZM34.5 12.5938C39.5775 12.5938 43.7143 16.7186 43.7143 21.7812C43.7143 26.8439 39.5775 30.9688 34.5 30.9688C29.4225 30.9688 25.2857 26.8439 25.2857 21.7812C25.2857 16.7186 29.4225 12.5938 34.5 12.5938Z" fill="#1078FF" fill-opacity="0.5"/>
</svg>
