<svg width="64" height="64" viewBox="0 0 64 64" fill="none" xmlns="http://www.w3.org/2000/svg">
<path d="M13.4923 40.4264C13.4923 44.1432 10.4883 47.1472 6.77155 47.1472C3.05476 47.1472 0.0507812 44.1432 0.0507812 40.4264C0.0507812 36.7096 3.05476 33.7056 6.77155 33.7056H13.4923V40.4264ZM16.8527 40.4264C16.8527 36.7096 19.8567 33.7056 23.5735 33.7056C27.2902 33.7056 30.2942 36.7096 30.2942 40.4264V57.2283C30.2942 60.9451 27.2902 63.9491 23.5735 63.9491C19.8567 63.9491 16.8527 60.9451 16.8527 57.2283V40.4264Z" fill="#E01E5A"/>
<path d="M23.5736 13.4415C19.8568 13.4415 16.8528 10.4375 16.8528 6.72076C16.8528 3.00398 19.8568 0 23.5736 0C27.2904 0 30.2943 3.00398 30.2943 6.72076V13.4415H23.5736ZM23.5736 16.8528C27.2904 16.8528 30.2943 19.8568 30.2943 23.5736C30.2943 27.2904 27.2904 30.2943 23.5736 30.2943H6.72076C3.00398 30.2943 0 27.2904 0 23.5736C0 19.8568 3.00398 16.8528 6.72076 16.8528H23.5736Z" fill="#36C5F0"/>
<path d="M50.5075 23.5736C50.5075 19.8568 53.5115 16.8528 57.2282 16.8528C60.945 16.8528 63.949 19.8568 63.949 23.5736C63.949 27.2904 60.945 30.2943 57.2282 30.2943H50.5075V23.5736ZM47.1471 23.5736C47.1471 27.2904 44.1431 30.2943 40.4263 30.2943C36.7095 30.2943 33.7056 27.2904 33.7056 23.5736V6.72076C33.7056 3.00398 36.7095 0 40.4263 0C44.1431 0 47.1471 3.00398 47.1471 6.72076V23.5736Z" fill="#2EB67D"/>
<path d="M40.4263 50.5075C44.1431 50.5075 47.1471 53.5115 47.1471 57.2283C47.1471 60.9451 44.1431 63.9491 40.4263 63.9491C36.7095 63.9491 33.7056 60.9451 33.7056 57.2283V50.5075H40.4263ZM40.4263 47.1472C36.7095 47.1472 33.7056 44.1432 33.7056 40.4264C33.7056 36.7096 36.7095 33.7056 40.4263 33.7056H57.2792C60.9959 33.7056 63.9999 36.7096 63.9999 40.4264C63.9999 44.1432 60.9959 47.1472 57.2792 47.1472H40.4263Z" fill="#ECB22E"/>
</svg>
