<svg width="84" height="56" viewBox="0 0 84 56" fill="none" xmlns="http://www.w3.org/2000/svg">
<path d="M11.7732 27.5722C8.7545 28.8661 5.411 28.6504 5.411 28.6504C3.24109 28.8391 1.38042 23.4618 2.1956 22.5262L6.48884 15.9272L4.22447 11.5059C4.22447 11.5059 10.7044 9.67499 14.4245 14.2102C14.8701 14.7536 15.4522 15.1715 16.0794 15.4874C16.118 15.5068 16.1573 15.5265 16.1974 15.5464C19.5526 17.2143 23.3735 17.5792 27.047 16.8379C36.3917 14.9514 45.2525 15.0652 55.1251 19.7001C64.9913 24.3362 73.9259 16.7887 72.7743 9.99562C71.7482 3.98275 77.3832 0.18379 81.5083 3.526M16.4183 44.4967C17.1954 41.6423 27.405 39.7765 27.405 39.7765C27.405 39.7765 31.5818 38.2225 29.2501 33.9486M19.3298 24.3374C17.3333 26.7104 14.2926 30.5521 18.7605 36.1871C18.7605 36.1871 10.0187 39.8787 10.9892 46.5812C10.9892 46.5812 11.4581 49.785 14.0972 49.6892M26.0582 46.0624C24.5624 55.4485 29.1455 53.8971 29.962 53.3873C31.4474 52.4591 32.3531 40.6369 35.0756 38.753C37.1355 37.3245 45.643 38.3621 45.643 38.3621M45.3895 34.8052C45.5074 37.0592 46.3637 39.2072 47.6332 41.0743C48.4892 42.3329 49.9661 44.0762 49.5132 44.9366C43.7177 55.935 50.3186 54.0226 50.9146 52.9163C55.0396 45.2601 58.8398 47.606 56.9274 39.3042C56.9274 39.3042 63.7464 36.9622 64.0699 28.9826M57.9534 40.3174C57.9534 40.3174 61.0161 44.4631 67.9917 43.8019C67.9917 43.8019 63.6881 52.5514 67.9917 53.6616C70.4721 54.301 74.1016 39.2214 74.1016 39.2214C74.1016 39.2214 71.7221 38.1944 68.9893 33.8102" stroke="#1078FF" stroke-width="3.49191" stroke-miterlimit="10" stroke-linecap="round" stroke-linejoin="round"/>
</svg>
